<svg
  xmlns="http://www.w3.org/2000/svg" viewBox="0 0 44.32 191.26">
  <defs>
    <style>.cls-1{isolation:isolate;}.cls-2{fill:#ffba8a;}.cls-3,.cls-8{fill:#e9ded8;}.cls-3,.cls-7{mix-blend-mode:multiply;}.cls-4{fill:#874629;}.cls-5{fill:#fff;}.cls-6{fill:none;stroke:#ebded3;stroke-linecap:round;stroke-linejoin:round;stroke-width:0;}</style>
  </defs>
  <title>Body</title>
  <g class="cls-1">
    <g id="Layer_2" data-name="Layer 2">
      <g id="OBJECTS">
        <g id="Shoulders">
          <path class="cls-2" d="M37.39,86.54c-.34-1.79-.76-3.55-1.19-5.32-.67-2.76-2.4-5.24-2.79-8.07s1.58-5.31,2.25-8l.21-.38c1.91,1.78,2.69,4.58,3.48,7.07a106.27,106.27,0,0,1,3.88,14.77s0,0,0,.07A15.38,15.38,0,0,0,37.39,86.54Z"/>
          <path class="cls-2" d="M6.94,86.6c.34-1.78.75-3.55,1.18-5.31.68-2.76,2.4-5.25,2.79-8.08S9.33,67.9,8.66,65.27l-.21-.38C6.55,66.66,5.77,69.47,5,72A106.27,106.27,0,0,0,1.09,86.72a.17.17,0,0,1,0,.07A15.43,15.43,0,0,1,6.94,86.6Z"/>
          <path class="cls-2" d="M33.92,63.33a22.91,22.91,0,0,0-5.05-1.5c-1.91-.45-2.84-.91-3-2.77-.14-1.38-.12-2.76-.22-4.14a.45.45,0,0,0-.08-.7c-1.8-1-4.26.21-6.22-.25a.25.25,0,0,0-.33.22.25.25,0,0,0-.26.24c-.15,1.54.06,3.3-.09,4.83-.19,1.86-1.12,2.32-3,2.77-1.73.41-3.59.51-5.21,1.3-3.7,1.8-3.9,5.24-3.19,9a57.13,57.13,0,0,0,2.23,8c.57,1.65.93,4.46,2.13,5.81,1,1.09,2.81,1,4.11,1.2a34.21,34.21,0,0,0,6.48,0,34.1,34.1,0,0,0,6.47,0c1.3-.17,3.16-.11,4.12-1.2,1.19-1.35,1.56-4.16,2.13-5.81a55.75,55.75,0,0,0,2.22-8C37.82,68.57,37.62,65.13,33.92,63.33Z"/>
          <path class="cls-3" d="M25.78,58c-.06-1-.08-2-.16-3.08a.45.45,0,0,0-.08-.7c-1.8-1-4.26.21-6.22-.25a.25.25,0,0,0-.33.22.25.25,0,0,0-.26.24c-.11,1.14,0,2.41,0,3.61A9.87,9.87,0,0,0,25.78,58Z"/>
          <path class="cls-2" d="M24.27,104.84c.69,0,1.33-.28,1.29-.81,0-.38-.48-.68-1.06-.68.47-.11,1-.35,1-.74-.25-1.36-4-.87-5.4-.75a1.23,1.23,0,0,0-.39-1.11.92.92,0,0,0-1.25.52,2.62,2.62,0,0,0,0,1.52c-2.64-.1-10.58-3.74-12.27-7.75-1-2.26.74-8.35,1.06-9.85a10.24,10.24,0,0,0-3.78-2.53A7.18,7.18,0,0,0,2,82.31c-.34,1.46-.65,2.93-.9,4.41C.69,89.15-1,95.14.92,98.85c2.51,4.75,16.31,9.25,22.36,9,.78,0,1.48-.11,1.74-.6s-.26-.86-.8-.89c.64-.07,1.38-.45,1.23-1.08C25.34,104.76,24.55,104.93,24.27,104.84Z"/>
          <path class="cls-2" d="M20.05,104.77c-.69,0-1.33-.27-1.29-.8,0-.38.49-.68,1.06-.68-.47-.12-1-.35-1-.75.25-1.35,4-.87,5.41-.74a1.22,1.22,0,0,1,.38-1.11.91.91,0,0,1,1.25.52,2.62,2.62,0,0,1,0,1.52c2.65-.1,10.58-3.74,12.28-7.75,1-2.26-.75-8.35-1.07-9.85a10.4,10.4,0,0,1,3.78-2.53,7.4,7.4,0,0,1,1.44-.36c.35,1.46.66,2.93.9,4.42.4,2.43,2.14,8.41.18,12.12-2.52,4.76-16.31,9.26-22.37,9-.77,0-1.48-.12-1.74-.6s.27-.87.8-.9c-.64-.06-1.38-.44-1.23-1.07C19,104.7,19.77,104.86,20.05,104.77Z"/>
        </g>
        <path class="cls-2" d="M40.25,37.74a1.75,1.75,0,0,0-1.55.53c.68-5.64-.42-11.9-4-16.31a.35.35,0,0,0-.59.1,28.81,28.81,0,0,0-7.67-4.23,17.23,17.23,0,0,0-9.8.36C13,19.29,5.6,22.73,5.92,27.53c0,0-.06.07-.06.13A85.56,85.56,0,0,0,6,38.75a2,2,0,0,0-2-1c-1.61.32-1.33,2.6-1.17,3.74.22,1.56.72,3.72,2.44,4.28a1.9,1.9,0,0,0,2.05-.5,20.39,20.39,0,0,0,3.12,5.89A15.13,15.13,0,0,0,24.79,56.8,13.25,13.25,0,0,0,27,56.23a13.69,13.69,0,0,0,6-4.17,21.68,21.68,0,0,0,2.58-3.91c.25-.47.49-.95.71-1.44.07-.17.7-1.36.61-1.47a1.92,1.92,0,0,0,2.07.52c1.72-.56,2.22-2.73,2.44-4.28C41.57,40.36,41.86,38.05,40.25,37.74Z"/>
        <path class="cls-4" d="M10.09,9.8a6.29,6.29,0,0,1,.09-3.19c.93-3.17,4.34-4.95,7.28-5.86a18.61,18.61,0,0,1,7.68-.6,14.1,14.1,0,0,1,7.63,3A9.29,9.29,0,0,1,36,11a7.89,7.89,0,0,1-5.07,6.56,12.59,12.59,0,0,1-3.4.55,58,58,0,0,1-6.85,0c-2.28-.14-5.08-.41-6.76-2.12A13.39,13.39,0,0,1,10.09,9.8Z"/>
        <path class="cls-4" d="M40.69,19C39.16,15.26,36,12,30.1,12.5c-8-4.8-19.64-3.13-24.74,4.37a18.55,18.55,0,0,0-1.5,2.63,17.59,17.59,0,0,0-1.6,6.24c-.31,4.41,1.11,10,3,14a22.26,22.26,0,0,0,1.67,2.85s-.26-2.8-.27-2.81c-.36-11.23,11.85-12.11,17.5-14.94a21.35,21.35,0,0,0,4-2.6c1.32,2.46,3.29,4.18,5.35,6.07,3.25,3,5.18,6,4.7,10.66,0,.45-.52,3.14-.31,2.76C41.51,35.14,43.28,25.32,40.69,19Z"/>
        <path id="Torso" class="cls-5" d="M35.71,79.9c-.13,2.41-7.59,19.82-7.44,21.77,0,0-3.8,3.46-3.83,3.5H20.72l-4.95-3.33c.48-2.14-7.68-19.6-7.65-23.61C8.14,74.5,35.76,75.84,35.71,79.9Z"/>
        <path class="cls-6" d="M34.72,82.5c-.19.42-.35.88-.52,1.33"/>
        <path class="cls-6" d="M9.54,82.42l0,0"/>
        <path class="cls-6" d="M34.72,82.5h0c-.19.42-.35.88-.52,1.33h0"/>
        <path id="Breasts" class="cls-5" d="M34.72,82.5c-4.29,1.66-8.75.76-12.55-1.18-4,2-7.67,2.87-12.63,1.1a5.29,5.29,0,0,1-2.48-4.49c-.14-7.51,11.56-9.76,15.1-3.77,3.53-6,15.24-3.74,15.09,3.77a5.28,5.28,0,0,1-2.5,4.51Z"/>
        <path class="cls-6" d="M9.54,82.42h0l0,0"/>
        <g class="cls-7">
          <path class="cls-8" d="M24.27,104.84c.69,0,1.33-.28,1.29-.81,0-.38-.48-.68-1.06-.68.47-.11,1-.35,1-.74-.25-1.36-4-.87-5.4-.75a1.81,1.81,0,0,0-.14-.8,2.12,2.12,0,0,0-1.55,1.5,1.57,1.57,0,0,0,0,.23h-.11a11.92,11.92,0,0,0,.13,3.48c0,.37.06.75.07,1.12a22.19,22.19,0,0,0,4.77.42c.78,0,1.48-.11,1.74-.6s-.26-.86-.8-.89c.64-.07,1.38-.45,1.23-1.08C25.34,104.76,24.55,104.93,24.27,104.84Z"/>
        </g>
        <g id="Legs">
          <path id="right" class="cls-2" d="M19.72,191.26,21.06,153a7.18,7.18,0,0,0,.08-3.74l.61-27.61H4.25L12.3,152A39.91,39.91,0,0,0,11.78,176a113.2,113.2,0,0,1,3.59,15.24Z"/>
          <path id="left" class="cls-2" d="M22.87,153l1.67,38.23h4.38a104.67,104.67,0,0,1,3.35-15.21A38.87,38.87,0,0,0,31.62,152l7.67-30.3H22.6l.17,27.61A7,7,0,0,0,22.87,153Z"/>
        </g>
        <g id="Hips">
          <path class="cls-2" d="M39.29,121.67a16.53,16.53,0,0,0,0-9.19h-35a22.79,22.79,0,0,0-.1,9.19Z"/>
          <path class="cls-5" d="M5.29,109.94c2.92-4,12.08-16.52,12.08-16.52H27.66s7.63,12,10.71,16.52a11.19,11.19,0,0,1,.82,2.12s-13.53,3.13-16.59,9.61h-.85s-4.25-7.94-17.34-9.41A8.3,8.3,0,0,1,5.29,109.94Z"/>
        </g>
      </g>
    </g>
  </g>
</svg>