<?xml version="1.0" encoding="UTF-8" standalone="no"?>
<svg
   xmlns:dc="http://purl.org/dc/elements/1.1/"
   xmlns:cc="http://creativecommons.org/ns#"
   xmlns:rdf="http://www.w3.org/1999/02/22-rdf-syntax-ns#"
   xmlns:svg="http://www.w3.org/2000/svg"
   xmlns="http://www.w3.org/2000/svg"
   xmlns:sodipodi="http://sodipodi.sourceforge.net/DTD/sodipodi-0.dtd"
   xmlns:inkscape="http://www.inkscape.org/namespaces/inkscape"
   viewBox="0 0 44.32 191.26"
   version="1.1"
   id="svg53"
   sodipodi:docname="Body1.svg"
   inkscape:version="0.92.4 (5da689c313, 2019-01-14)">
  <metadata
     id="metadata57">
    <rdf:RDF>
      <cc:Work
         rdf:about="">
        <dc:format>image/svg+xml</dc:format>
        <dc:type
           rdf:resource="http://purl.org/dc/dcmitype/StillImage" />
        <dc:title>Body1</dc:title>
      </cc:Work>
    </rdf:RDF>
  </metadata>
  <sodipodi:namedview
     pagecolor="#ffffff"
     bordercolor="#666666"
     borderopacity="1"
     objecttolerance="10"
     gridtolerance="10"
     guidetolerance="10"
     inkscape:pageopacity="0"
     inkscape:pageshadow="2"
     inkscape:window-width="1920"
     inkscape:window-height="1109"
     id="namedview55"
     showgrid="false"
     inkscape:zoom="3.4900597"
     inkscape:cx="11.943704"
     inkscape:cy="97.231719"
     inkscape:window-x="0"
     inkscape:window-y="31"
     inkscape:window-maximized="1"
     inkscape:current-layer="svg53" />
  <defs
     id="defs4">
    <style
       id="style2">.cls-1{isolation:isolate;}.cls-2{fill:#ffba8a;}.cls-3,.cls-8{fill:#e9ded8;}.cls-3,.cls-7{mix-blend-mode:multiply;}.cls-4{fill:#874629;}.cls-5{fill:#fff;}.cls-6{fill:none;stroke:#ebded3;stroke-linecap:round;stroke-linejoin:round;stroke-width:0;}</style>
  </defs>
  <title
     id="title6">Body1</title>
  <g
     class="cls-1"
     id="g51"
     style="isolation:isolate">
    <g
       data-name="Layer 2"
       id="g109">
      <g
         id="g107">
        <g
           id="g71">
          <path
             style="fill:#ffba8a"
             inkscape:connector-curvature="0"
             id="path59"
             d="m 37.39,86.54 c -0.34,-1.79 -0.76,-3.55 -1.19,-5.32 -0.67,-2.76 -2.4,-5.24 -2.79,-8.07 -0.39,-2.83 1.58,-5.31 2.25,-8 l 0.21,-0.38 c 1.91,1.78 2.69,4.58 3.48,7.07 a 106.27,106.27 0 0 1 3.88,14.77 c 0,0 0,0 0,0.07 a 15.38,15.38 0 0 0 -5.84,-0.14 z"
             class="cls-2" />
          <path
             style="fill:#ffba8a"
             inkscape:connector-curvature="0"
             id="path61"
             d="M 6.94,86.6 C 7.28,84.82 7.69,83.05 8.12,81.29 8.8,78.53 10.52,76.04 10.91,73.21 11.3,70.38 9.33,67.9 8.66,65.27 L 8.45,64.89 C 6.55,66.66 5.77,69.47 5,72 a 106.27,106.27 0 0 0 -3.91,14.72 0.17,0.17 0 0 1 0,0.07 15.43,15.43 0 0 1 5.85,-0.19 z"
             class="cls-2" />
          <path
             style="fill:#ffba8a"
             inkscape:connector-curvature="0"
             id="path63"
             d="m 18.67,54.77 a 15.25,15.25 0 0 1 0,4.49 3.06,3.06 0 0 1 -0.58,1.63 4.29,4.29 0 0 1 -2.48,1.11 c -1.73,0.41 -3.59,0.51 -5.21,1.3 -3.7,1.8 -3.9,5.24 -3.19,9 a 57.13,57.13 0 0 0 2.23,8 c 0.57,1.65 0.93,4.46 2.13,5.81 1,1.09 2.81,1 4.11,1.2 a 34.21,34.21 0 0 0 6.48,0 34.1,34.1 0 0 0 6.47,0 c 1.3,-0.17 3.16,-0.11 4.12,-1.2 1.19,-1.35 1.56,-4.16 2.13,-5.81 a 55.75,55.75 0 0 0 2.22,-8 c 0.72,-3.77 0.52,-7.21 -3.18,-9 a 22.91,22.91 0 0 0 -5.05,-1.5 4.35,4.35 0 0 1 -2.45,-1.15 3.08,3.08 0 0 1 -0.58,-1.62 20.73,20.73 0 0 1 -0.22,-4.14 z"
             class="cls-2" />
          <path
             style="mix-blend-mode:multiply;fill:#e9ded8"
             inkscape:connector-curvature="0"
             id="path65"
             d="m 25.62,54.92 a 17.86,17.86 0 0 0 0.1,3.22 9.53,9.53 0 0 1 -6.94,-0.26 18.63,18.63 0 0 0 -0.11,-3.11 z"
             class="cls-3" />
          <path
             style="fill:#ffba8a"
             inkscape:connector-curvature="0"
             id="path67"
             d="m 24.27,104.84 c 0.69,0 1.33,-0.28 1.29,-0.81 0,-0.38 -0.48,-0.68 -1.06,-0.68 0.47,-0.11 1,-0.35 1,-0.74 -0.25,-1.36 -4,-0.87 -5.4,-0.75 a 1.23,1.23 0 0 0 -0.39,-1.11 0.92,0.92 0 0 0 -1.25,0.52 2.62,2.62 0 0 0 0,1.52 C 15.82,102.69 7.88,99.05 6.19,95.04 5.19,92.78 6.93,86.69 7.25,85.19 A 10.24,10.24 0 0 0 3.47,82.66 7.18,7.18 0 0 0 2,82.31 c -0.34,1.46 -0.65,2.93 -0.9,4.41 -0.41,2.43 -2.1,8.42 -0.18,12.13 2.51,4.75 16.31,9.25 22.36,9 0.78,0 1.48,-0.11 1.74,-0.6 0.26,-0.49 -0.26,-0.86 -0.8,-0.89 0.64,-0.07 1.38,-0.45 1.23,-1.08 -0.11,-0.52 -0.9,-0.35 -1.18,-0.44 z"
             class="cls-2" />
          <path
             style="fill:#ffba8a"
             inkscape:connector-curvature="0"
             id="path69"
             d="m 20.05,104.77 c -0.69,0 -1.33,-0.27 -1.29,-0.8 0,-0.38 0.49,-0.68 1.06,-0.68 -0.47,-0.12 -1,-0.35 -1,-0.75 0.25,-1.35 4,-0.87 5.41,-0.74 a 1.22,1.22 0 0 1 0.38,-1.11 0.91,0.91 0 0 1 1.25,0.52 2.62,2.62 0 0 1 0,1.52 c 2.65,-0.1 10.58,-3.74 12.28,-7.75 1,-2.26 -0.75,-8.35 -1.07,-9.85 a 10.4,10.4 0 0 1 3.78,-2.53 7.4,7.4 0 0 1 1.44,-0.36 c 0.35,1.46 0.66,2.93 0.9,4.42 0.4,2.43 2.14,8.41 0.18,12.12 -2.52,4.76 -16.31,9.26 -22.37,9 -0.77,0 -1.48,-0.12 -1.74,-0.6 -0.26,-0.48 0.27,-0.87 0.8,-0.9 -0.64,-0.06 -1.38,-0.44 -1.23,-1.07 0.17,-0.51 0.94,-0.35 1.22,-0.44 z"
             class="cls-2" />
        </g>
        <path
           style="fill:#ffffff"
           inkscape:connector-curvature="0"
           d="m 35.71,79.9 c -0.13,2.41 -7.59,19.82 -7.44,21.77 0,0 -3.8,3.46 -3.83,3.5 h -3.72 l -4.95,-3.33 C 16.25,99.7 8.09,82.24 8.12,78.23 8.14,74.5 35.76,75.84 35.71,79.9 Z"
           class="cls-5"
           id="path79" />
        <path
           style="fill:none;stroke:#ebded3;stroke-width:0;stroke-linecap:round;stroke-linejoin:round"
           inkscape:connector-curvature="0"
           id="path81"
           d="m 34.72,82.5 c -0.19,0.42 -0.35,0.88 -0.52,1.33"
           class="cls-6" />
        <path
           style="fill:none;stroke:#ebded3;stroke-width:0;stroke-linecap:round;stroke-linejoin:round"
           inkscape:connector-curvature="0"
           id="path83"
           d="m 9.54,82.42 v 0"
           class="cls-6" />
        <path
           style="fill:none;stroke:#ebded3;stroke-width:0;stroke-linecap:round;stroke-linejoin:round"
           inkscape:connector-curvature="0"
           id="path85"
           d="m 34.72,82.5 v 0 c -0.19,0.42 -0.35,0.88 -0.52,1.33 v 0"
           class="cls-6" />
        <path
           style="fill:#ffffff"
           inkscape:connector-curvature="0"
           d="m 34.72,82.5 c -4.29,1.66 -8.75,0.76 -12.55,-1.18 -4,2 -7.67,2.87 -12.63,1.1 A 5.29,5.29 0 0 1 7.06,77.93 c -0.14,-7.51 11.56,-9.76 15.1,-3.77 3.53,-6 15.24,-3.74 15.09,3.77 a 5.28,5.28 0 0 1 -2.5,4.51 z"
           class="cls-5"
           id="path87" />
        <path
           style="fill:none;stroke:#ebded3;stroke-width:0;stroke-linecap:round;stroke-linejoin:round"
           inkscape:connector-curvature="0"
           id="path89"
           d="m 9.54,82.42 v 0 0"
           class="cls-6" />
        <g
           style="mix-blend-mode:multiply"
           id="g93"
           class="cls-7">
          <path
             style="fill:#e9ded8"
             inkscape:connector-curvature="0"
             id="path91"
             d="m 24.27,104.84 c 0.69,0 1.33,-0.28 1.29,-0.81 0,-0.38 -0.48,-0.68 -1.06,-0.68 0.47,-0.11 1,-0.35 1,-0.74 -0.25,-1.36 -4,-0.87 -5.4,-0.75 a 1.81,1.81 0 0 0 -0.14,-0.8 2.12,2.12 0 0 0 -1.55,1.5 1.57,1.57 0 0 0 0,0.23 H 18.3 a 11.92,11.92 0 0 0 0.13,3.48 c 0,0.37 0.06,0.75 0.07,1.12 a 22.19,22.19 0 0 0 4.77,0.42 c 0.78,0 1.48,-0.11 1.74,-0.6 0.26,-0.49 -0.26,-0.86 -0.8,-0.89 0.64,-0.07 1.38,-0.45 1.23,-1.08 -0.1,-0.48 -0.89,-0.31 -1.17,-0.4 z"
             class="cls-8" />
        </g>
        <g
           id="g99">
          <path
             style="fill:#ffba8a"
             inkscape:connector-curvature="0"
             d="M 19.72,191.26 21.06,153 a 7.18,7.18 0 0 0 0.08,-3.74 l 0.61,-27.61 H 4.25 L 12.3,152 a 39.91,39.91 0 0 0 -0.52,24 113.2,113.2 0 0 1 3.59,15.24 z"
             class="cls-2"
             id="path95" />
          <path
             style="fill:#ffba8a"
             inkscape:connector-curvature="0"
             d="m 22.87,153 1.67,38.23 h 4.38 A 104.67,104.67 0 0 1 32.27,176.02 38.87,38.87 0 0 0 31.62,152 l 7.67,-30.3 H 22.6 l 0.17,27.61 a 7,7 0 0 0 0.1,3.69 z"
             class="cls-2"
             id="path97" />
        </g>
        <g
           id="g105">
          <path
             style="fill:#ffba8a"
             inkscape:connector-curvature="0"
             id="path101"
             d="m 39.29,121.67 a 16.53,16.53 0 0 0 0,-9.19 h -35 a 22.79,22.79 0 0 0 -0.1,9.19 z"
             class="cls-2" />
          <path
             style="fill:#ffffff"
             inkscape:connector-curvature="0"
             id="path103"
             d="m 5.29,109.94 c 2.92,-4 12.08,-16.52 12.08,-16.52 h 10.29 c 0,0 7.63,12 10.71,16.52 a 11.19,11.19 0 0 1 0.82,2.12 c 0,0 -13.53,3.13 -16.59,9.61 h -0.85 c 0,0 -4.25,-7.94 -17.34,-9.41 a 8.3,8.3 0 0 1 0.88,-2.32 z"
             class="cls-5" />
        </g>
      </g>
    </g>
    <g
       id="Layer_2"
       data-name="Layer 2">
      <g
         id="OBJECTS">
        <path
           class="cls-2"
           d="m 40.25,37.74 a 1.75,1.75 0 0 0 -1.55,0.53 c 0.68,-5.64 -0.42,-11.9 -4,-16.31 a 0.35,0.35 0 0 0 -0.59,0.1 28.81,28.81 0 0 0 -7.67,-4.23 17.23,17.23 0 0 0 -9.8,0.36 C 13,19.29 5.6,22.73 5.92,27.53 c 0,0 -0.06,0.07 -0.06,0.13 A 85.56,85.56 0 0 0 6,38.75 a 2,2 0 0 0 -2,-1 c -1.61,0.32 -1.33,2.6 -1.17,3.74 0.22,1.56 0.72,3.72 2.44,4.28 a 1.9,1.9 0 0 0 2.05,-0.5 20.39,20.39 0 0 0 3.12,5.89 15.13,15.13 0 0 0 14.35,5.64 13.25,13.25 0 0 0 2.21,-0.57 13.69,13.69 0 0 0 6,-4.17 21.68,21.68 0 0 0 2.58,-3.91 c 0.25,-0.47 0.49,-0.95 0.71,-1.44 0.07,-0.17 0.7,-1.36 0.61,-1.47 a 1.92,1.92 0 0 0 2.07,0.52 c 1.72,-0.56 2.22,-2.73 2.44,-4.28 0.16,-1.12 0.45,-3.43 -1.16,-3.74 z"
           id="path21"
           inkscape:connector-curvature="0"
           style="fill:#ffba8a" />
        <path
           class="cls-4"
           d="m 10.09,9.8 a 6.29,6.29 0 0 1 0.09,-3.19 c 0.93,-3.17 4.34,-4.95 7.28,-5.86 a 18.61,18.61 0 0 1 7.68,-0.6 14.1,14.1 0 0 1 7.63,3 9.29,9.29 0 0 1 3.23,7.85 7.89,7.89 0 0 1 -5.07,6.56 12.59,12.59 0 0 1 -3.4,0.55 58,58 0 0 1 -6.85,0 C 18.4,17.97 15.6,17.7 13.92,15.99 A 13.39,13.39 0 0 1 10.09,9.8 Z"
           id="path23"
           inkscape:connector-curvature="0"
           style="fill:#874629" />
        <path
           class="cls-4"
           d="M 40.69,19 C 39.16,15.26 36,12 30.1,12.5 22.1,7.7 10.46,9.37 5.36,16.87 a 18.55,18.55 0 0 0 -1.5,2.63 17.59,17.59 0 0 0 -1.6,6.24 c -0.31,4.41 1.11,10 3,14 a 22.26,22.26 0 0 0 1.67,2.85 c 0,0 -0.26,-2.8 -0.27,-2.81 C 6.3,28.55 18.51,27.67 24.16,24.84 a 21.35,21.35 0 0 0 4,-2.6 c 1.32,2.46 3.29,4.18 5.35,6.07 3.25,3 5.18,6 4.7,10.66 0,0.45 -0.52,3.14 -0.31,2.76 3.61,-6.59 5.38,-16.41 2.79,-22.73 z"
           id="path25"
           inkscape:connector-curvature="0"
           style="fill:#874629" />
      </g>
    </g>
  </g>
</svg>
