<svg
  xmlns="http://www.w3.org/2000/svg" viewBox="0 0 76.11 191.26">
  <defs>
    <style>.cls-1{isolation:isolate;}.cls-2{fill:#ffba8a;}.cls-3,.cls-8{fill:#e9ded8;}.cls-3,.cls-7{mix-blend-mode:multiply;}.cls-4{fill:#874629;}.cls-5{fill:#fff;}.cls-6{fill:none;stroke:#ebded3;stroke-linecap:round;stroke-linejoin:round;stroke-width:0;}</style>
  </defs>
  <title>Body 2</title>
  <g class="cls-1">
    <g id="Layer_2" data-name="Layer 2">
      <g id="OBJECTS">
        <g id="Shoulders">
          <path class="cls-2" d="M64.2,86.54c-.59-1.79-1.3-3.55-2-5.32C61,78.46,58,76,57.37,73.15s2.72-5.31,3.87-8l.35-.38c3.28,1.78,4.62,4.58,6,7.07,2.65,4.85,5.24,9.74,6.66,14.77a.64.64,0,0,1,0,.07A45.08,45.08,0,0,0,64.2,86.54Z"/>
          <path class="cls-2" d="M11.91,86.6c.58-1.78,1.3-3.55,2-5.31,1.16-2.76,4.12-5.25,4.79-8.08S16,67.9,14.87,65.27l-.35-.38c-3.28,1.77-4.62,4.58-6,7.06C5.89,76.8,3.3,81.69,1.88,86.72c0,0,0,0,0,.07A45.08,45.08,0,0,1,11.91,86.6Z"/>
          <path class="cls-2" d="M58.24,63.33a61.75,61.75,0,0,0-8.67-1.5c-3.27-.45-4.87-.91-5.19-2.77-.24-1.38-.21-2.76-.39-4.14.31-.19.35-.53-.13-.7-3.1-1-7.33.21-10.68-.25-.33,0-.53.08-.58.22-.2,0-.41.07-.44.24-.26,1.54.11,3.3-.16,4.83-.32,1.86-1.92,2.32-5.2,2.77-3,.41-6.17.51-8.94,1.3-6.36,1.8-6.71,5.24-5.47,9a40.15,40.15,0,0,0,3.81,8c1,1.65,1.61,4.46,3.67,5.81,1.64,1.09,4.83,1,7.06,1.2a100.59,100.59,0,0,0,11.12,0,100.4,100.4,0,0,0,11.11,0c2.24-.17,5.42-.11,7.07-1.2,2.05-1.35,2.68-4.16,3.66-5.81a40.77,40.77,0,0,0,3.82-8C64.94,68.57,64.59,65.13,58.24,63.33Z"/>
          <path class="cls-3" d="M44.26,58c-.09-1-.14-2-.27-3.08.31-.19.35-.53-.13-.7-3.1-1-7.33.21-10.68-.25-.33,0-.53.08-.58.22-.2,0-.41.07-.44.24A25.44,25.44,0,0,0,32.1,58,28.48,28.48,0,0,0,44.26,58Z"/>
          <path class="cls-2" d="M41.68,104.84c1.19,0,2.28-.28,2.22-.81,0-.38-.84-.68-1.82-.68.8-.11,1.78-.35,1.66-.74-.43-1.36-6.92-.87-9.28-.75a1,1,0,0,0-.66-1.11,2.09,2.09,0,0,0-2.15.52,1.58,1.58,0,0,0,0,1.52c-4.54-.1-18.16-3.74-21.08-7.75-1.64-2.26,1.29-8.35,1.84-9.85a21.51,21.51,0,0,0-6.5-2.53,20.1,20.1,0,0,0-2.47-.35,43.56,43.56,0,0,0-1.54,4.41c-.69,2.43-3.67,8.42-.31,12.13,4.32,4.75,28,9.25,38.4,9,1.34,0,2.54-.11,3-.6s-.45-.86-1.37-.89c1.1-.07,2.37-.45,2.11-1.08C43.51,104.76,42.16,104.93,41.68,104.84Z"/>
          <path class="cls-2" d="M34.43,104.77c-1.19,0-2.29-.27-2.22-.8,0-.38.84-.68,1.82-.68-.81-.12-1.78-.35-1.66-.75.43-1.35,6.92-.87,9.28-.74a1,1,0,0,1,.66-1.11,2.1,2.1,0,0,1,2.15.52,1.63,1.63,0,0,1,0,1.52C49,102.63,62.64,99,65.56,95c1.64-2.26-1.29-8.35-1.84-9.85a21.51,21.51,0,0,1,6.5-2.53,19.89,19.89,0,0,1,2.47-.36,42.89,42.89,0,0,1,1.54,4.42c.69,2.43,3.67,8.41.31,12.12-4.32,4.76-28,9.26-38.4,9-1.34,0-2.55-.12-3-.6s.46-.87,1.38-.9c-1.1-.06-2.38-.44-2.12-1.07C32.6,104.7,34,104.86,34.43,104.77Z"/>
        </g>
        <path class="cls-2" d="M56.14,37.74a1.75,1.75,0,0,0-1.55.53c.68-5.64-.42-11.9-4-16.31a.34.34,0,0,0-.58.1,29,29,0,0,0-7.68-4.23,17.19,17.19,0,0,0-9.79.36c-3.71,1.1-11.1,4.54-10.77,9.34a.2.2,0,0,0-.06.13,85.55,85.55,0,0,0,.16,11.09,2,2,0,0,0-2-1c-1.61.32-1.33,2.6-1.17,3.74.22,1.56.72,3.72,2.44,4.28a1.92,1.92,0,0,0,2.06-.5,20.36,20.36,0,0,0,3.11,5.89A15.15,15.15,0,0,0,40.68,56.8a13.25,13.25,0,0,0,2.25-.57,13.69,13.69,0,0,0,6-4.17,20.67,20.67,0,0,0,2.58-3.91c.25-.47.49-.95.71-1.44.07-.17.7-1.36.61-1.47a1.92,1.92,0,0,0,2.07.52c1.72-.56,2.22-2.73,2.44-4.28C57.46,40.36,57.75,38.05,56.14,37.74Z"/>
        <path class="cls-4" d="M26,9.8a6.29,6.29,0,0,1,.09-3.19C27,3.44,30.41,1.66,33.35.75A18.61,18.61,0,0,1,41,.15a14.1,14.1,0,0,1,7.63,3A9.29,9.29,0,0,1,51.87,11a7.86,7.86,0,0,1-5.06,6.56,12.72,12.72,0,0,1-3.41.55,58,58,0,0,1-6.85,0c-2.28-.14-5.07-.41-6.76-2.12A13.39,13.39,0,0,1,26,9.8Z"/>
        <path class="cls-4" d="M56.59,19C55.05,15.26,51.88,12,46,12.5c-8-4.8-19.64-3.13-24.74,4.37a19.58,19.58,0,0,0-1.5,2.63,17.8,17.8,0,0,0-1.6,6.24,31.4,31.4,0,0,0,3,14,20.36,20.36,0,0,0,1.68,2.85s-.27-2.8-.27-2.81C22.17,28.57,34.38,27.69,40,24.86a20.73,20.73,0,0,0,4-2.6c1.32,2.46,3.29,4.18,5.35,6.07,3.25,3,5.19,6,4.71,10.66-.05.45-.53,3.14-.32,2.76C57.4,35.14,59.17,25.32,56.59,19Z"/>
        <path id="Torso" class="cls-5" d="M58.46,79.9c-.21,2.41-9.7,23.32-9.46,25.27,0,0-7.37,0-7.42,0H36L26,106.52c.71-2.14-8.83-24.28-8.79-28.29C17.19,74.5,58.53,75.84,58.46,79.9Z"/>
        <path class="cls-6" d="M50.62,82.5a14.12,14.12,0,0,0-.52,1.33"/>
        <path class="cls-6" d="M25.43,82.42l0,0"/>
        <path class="cls-6" d="M50.62,82.5h0a14.12,14.12,0,0,0-.52,1.33h0"/>
        <path id="Breasts" class="cls-5" d="M59.83,86.48c-7.44,2.88-15.18,1.32-21.75-2-7,3.51-13.3,5-21.89,1.9a9.15,9.15,0,0,1-4.3-7.78c-.26-13,20-16.92,26.16-6.53,6.13-10.39,26.41-6.49,26.16,6.53a9.18,9.18,0,0,1-4.34,7.82A.36.36,0,0,0,59.83,86.48Z"/>
        <path class="cls-6" d="M25.43,82.42h0l0,0"/>
        <g class="cls-7">
          <path class="cls-8" d="M40.16,104.84c.7,0,1.34-.28,1.3-.81,0-.38-.49-.68-1.06-.68.47-.11,1-.35,1-.74-.24-1.36-4-.87-5.4-.75a1.68,1.68,0,0,0-.14-.8,2.14,2.14,0,0,0-1.55,1.5c0,.08,0,.16,0,.23h-.1a11.92,11.92,0,0,0,.12,3.48c0,.37.06.75.08,1.12a22.1,22.1,0,0,0,4.76.42c.78,0,1.48-.11,1.74-.6s-.26-.86-.8-.89c.64-.07,1.39-.45,1.23-1.08C41.23,104.76,40.44,104.93,40.16,104.84Z"/>
        </g>
        <g id="Legs">
          <path id="right" class="cls-2" d="M34.69,191.26,36.63,153a5.68,5.68,0,0,0,.12-3.74l.88-27.61H12.23L23.92,152c-5.28,10.34-1.48,21.37-.76,24.07a86.73,86.73,0,0,1,5.22,15.24Z"/>
          <path id="left" class="cls-2" d="M39.25,153l2.43,38.23H48a77.64,77.64,0,0,1,4.86-15.21c0-.05,4.39-13.59-.94-24.08l11.13-30.3H38.86l.25,27.61A5.75,5.75,0,0,0,39.25,153Z"/>
        </g>
        <g id="Hips">
          <path class="cls-2" d="M63.24,121.67a11.58,11.58,0,0,0,0-9.19H12.11a15.91,15.91,0,0,0-.14,9.19Z"/>
          <path class="cls-5" d="M13.49,109.94,31.17,93.42H46.23s11.16,12,15.67,16.52a9.74,9.74,0,0,1,1.19,2.12s-19.8,3.13-24.28,9.61H37.58s-6.22-7.94-25.37-9.41A6.89,6.89,0,0,1,13.49,109.94Z"/>
        </g>
      </g>
    </g>
  </g>
</svg>