<?xml version="1.0" encoding="UTF-8" standalone="no"?>
<svg
   xmlns:dc="http://purl.org/dc/elements/1.1/"
   xmlns:cc="http://creativecommons.org/ns#"
   xmlns:rdf="http://www.w3.org/1999/02/22-rdf-syntax-ns#"
   xmlns:svg="http://www.w3.org/2000/svg"
   xmlns="http://www.w3.org/2000/svg"
   xmlns:sodipodi="http://sodipodi.sourceforge.net/DTD/sodipodi-0.dtd"
   xmlns:inkscape="http://www.inkscape.org/namespaces/inkscape"
   viewBox="0 0 76.11 191.26"
   version="1.1"
   id="svg316"
   sodipodi:docname="Body2.svg"
   inkscape:version="0.92.4 (5da689c313, 2019-01-14)">
  <metadata
     id="metadata320">
    <rdf:RDF>
      <cc:Work
         rdf:about="">
        <dc:format>image/svg+xml</dc:format>
        <dc:type
           rdf:resource="http://purl.org/dc/dcmitype/StillImage" />
      </cc:Work>
    </rdf:RDF>
  </metadata>
  <sodipodi:namedview
     pagecolor="#ffffff"
     bordercolor="#666666"
     borderopacity="1"
     objecttolerance="10"
     gridtolerance="10"
     guidetolerance="10"
     inkscape:pageopacity="0"
     inkscape:pageshadow="2"
     inkscape:window-width="1920"
     inkscape:window-height="1109"
     id="namedview318"
     showgrid="false"
     inkscape:zoom="1.2339224"
     inkscape:cx="-233.03173"
     inkscape:cy="95.629997"
     inkscape:window-x="0"
     inkscape:window-y="31"
     inkscape:window-maximized="1"
     inkscape:current-layer="OBJECTS" />
  <defs
     id="defs267">
    <style
       id="style265">.cls-1{isolation:isolate;}.cls-2{fill:#ffba8a;}.cls-3,.cls-8{fill:#e9ded8;}.cls-3,.cls-7{mix-blend-mode:multiply;}.cls-4{fill:#874629;}.cls-5{fill:#fff;}.cls-6{fill:none;stroke:#ebded3;stroke-linecap:round;stroke-linejoin:round;stroke-width:0;}</style>
  </defs>
  <title
     id="title269">Body2</title>
  <g
     class="cls-1"
     id="g314"
     style="isolation:isolate">
    <g
       id="Layer_2"
       data-name="Layer 2">
      <g
         id="OBJECTS">
        <g
           id="Shoulders">
          <path
             class="cls-2"
             d="M 64.2,86.54 C 63.61,84.75 62.9,82.99 62.2,81.22 61,78.46 58,76 57.37,73.15 c -0.63,-2.85 2.72,-5.31 3.87,-8 l 0.35,-0.38 c 3.28,1.78 4.62,4.58 6,7.07 2.65,4.85 5.24,9.74 6.66,14.77 a 0.64,0.64 0 0 1 0,0.07 45.08,45.08 0 0 0 -10.05,-0.14 z"
             id="path271"
             inkscape:connector-curvature="0"
             style="fill:#ffba8a" />
          <path
             class="cls-2"
             d="m 11.91,86.6 c 0.58,-1.78 1.3,-3.55 2,-5.31 1.16,-2.76 4.12,-5.25 4.79,-8.08 0.67,-2.83 -2.7,-5.31 -3.83,-7.94 l -0.35,-0.38 c -3.28,1.77 -4.62,4.58 -6,7.06 -2.63,4.85 -5.22,9.74 -6.64,14.77 0,0 0,0 0,0.07 A 45.08,45.08 0 0 1 11.91,86.6 Z"
             id="path273"
             inkscape:connector-curvature="0"
             style="fill:#ffba8a" />
          <path
             class="cls-2"
             d="m 32.16,54.43 c -0.36,0.82 0.56,2.34 -0.16,4.83 a 2.9,2.9 0 0 1 -0.43,1.08 c -0.72,1 -2.24,1.35 -4.77,1.69 -3,0.41 -6.17,0.51 -8.94,1.3 -6.36,1.8 -6.71,5.24 -5.47,9 a 40.15,40.15 0 0 0 3.81,8 c 1,1.65 1.61,4.46 3.67,5.81 1.64,1.09 4.83,1 7.06,1.2 a 100.59,100.59 0 0 0 11.12,0 100.4,100.4 0 0 0 11.11,0 c 2.24,-0.17 5.42,-0.11 7.07,-1.2 2.05,-1.35 2.68,-4.16 3.66,-5.81 a 40.77,40.77 0 0 0 3.82,-8 c 1.23,-3.77 0.88,-7.21 -5.47,-9 a 61.75,61.75 0 0 0 -8.67,-1.5 c -2.52,-0.35 -4,-0.7 -4.76,-1.7 A 3,3 0 0 1 44.38,59.06 10.74,10.74 0 0 1 44,54.92 Z"
             id="path275"
             inkscape:connector-curvature="0"
             style="fill:#ffba8a" />
          <path
             class="cls-3"
             d="m 32.21,58.28 12,-0.05 v 0 A 17,17 0 0 1 44,54.92 C 38.6,54.68 33.34,54.5 32.17,54.43 c -0.09,0.68 0.18,1.62 0.04,3.85 z"
             id="path277"
             inkscape:connector-curvature="0"
             style="mix-blend-mode:multiply;fill:#e9ded8" />
          <path
             class="cls-2"
             d="m 41.68,104.84 c 1.19,0 2.28,-0.28 2.22,-0.81 0,-0.38 -0.84,-0.68 -1.82,-0.68 0.8,-0.11 1.78,-0.35 1.66,-0.74 -0.43,-1.36 -6.92,-0.87 -9.28,-0.75 a 1,1 0 0 0 -0.66,-1.11 2.09,2.09 0 0 0 -2.15,0.52 1.58,1.58 0 0 0 0,1.52 c -4.54,-0.1 -18.16,-3.74 -21.08,-7.75 -1.64,-2.26 1.29,-8.35 1.84,-9.85 A 21.51,21.51 0 0 0 5.91,82.66 20.1,20.1 0 0 0 3.44,82.31 43.56,43.56 0 0 0 1.9,86.72 c -0.69,2.43 -3.67,8.42 -0.31,12.13 4.32,4.75 28,9.25 38.4,9 1.34,0 2.54,-0.11 3,-0.6 0.46,-0.49 -0.45,-0.86 -1.37,-0.89 1.1,-0.07 2.37,-0.45 2.11,-1.08 -0.22,-0.52 -1.57,-0.35 -2.05,-0.44 z"
             id="path279"
             inkscape:connector-curvature="0"
             style="fill:#ffba8a" />
          <path
             class="cls-2"
             d="m 34.43,104.77 c -1.19,0 -2.29,-0.27 -2.22,-0.8 0,-0.38 0.84,-0.68 1.82,-0.68 -0.81,-0.12 -1.78,-0.35 -1.66,-0.75 0.43,-1.35 6.92,-0.87 9.28,-0.74 a 1,1 0 0 1 0.66,-1.11 2.1,2.1 0 0 1 2.15,0.52 1.63,1.63 0 0 1 0,1.52 C 49,102.63 62.64,99 65.56,95 67.2,92.74 64.27,86.65 63.72,85.15 a 21.51,21.51 0 0 1 6.5,-2.53 19.89,19.89 0 0 1 2.47,-0.36 42.89,42.89 0 0 1 1.54,4.42 c 0.69,2.43 3.67,8.41 0.31,12.12 -4.32,4.76 -28,9.26 -38.4,9 -1.34,0 -2.55,-0.12 -3,-0.6 -0.45,-0.48 0.46,-0.87 1.38,-0.9 -1.1,-0.06 -2.38,-0.44 -2.12,-1.07 0.2,-0.53 1.6,-0.37 2.03,-0.46 z"
             id="path281"
             inkscape:connector-curvature="0"
             style="fill:#ffba8a" />
        </g>
        <path
           id="Torso"
           class="cls-5"
           d="m 58.46,79.9 c -0.21,2.41 -9.7,23.32 -9.46,25.27 0,0 -7.37,0 -7.42,0 H 36 l -10,1.35 C 26.71,104.38 17.17,82.24 17.21,78.23 17.19,74.5 58.53,75.84 58.46,79.9 Z"
           inkscape:connector-curvature="0"
           style="fill:#ffffff" />
        <path
           class="cls-6"
           d="M 50.62,82.5 A 14.12,14.12 0 0 0 50.1,83.83"
           id="path291"
           inkscape:connector-curvature="0"
           style="fill:none;stroke:#ebded3;stroke-width:0;stroke-linecap:round;stroke-linejoin:round" />
        <path
           class="cls-6"
           d="m 25.43,82.42 v 0"
           id="path293"
           inkscape:connector-curvature="0"
           style="fill:none;stroke:#ebded3;stroke-width:0;stroke-linecap:round;stroke-linejoin:round" />
        <path
           class="cls-6"
           d="m 50.62,82.5 v 0 a 14.12,14.12 0 0 0 -0.52,1.33 v 0"
           id="path295"
           inkscape:connector-curvature="0"
           style="fill:none;stroke:#ebded3;stroke-width:0;stroke-linecap:round;stroke-linejoin:round" />
        <path
           id="Breasts"
           class="cls-5"
           d="m 59.83,86.48 c -7.44,2.88 -15.18,1.32 -21.75,-2 -7,3.51 -13.3,5 -21.89,1.9 a 9.15,9.15 0 0 1 -4.3,-7.78 c -0.26,-13 20,-16.92 26.16,-6.53 6.13,-10.39 26.41,-6.49 26.16,6.53 a 9.18,9.18 0 0 1 -4.34,7.82 0.36,0.36 0 0 0 -0.04,0.06 z"
           inkscape:connector-curvature="0"
           style="fill:#ffffff" />
        <path
           class="cls-6"
           d="m 25.43,82.42 v 0 0"
           id="path298"
           inkscape:connector-curvature="0"
           style="fill:none;stroke:#ebded3;stroke-width:0;stroke-linecap:round;stroke-linejoin:round" />
        <g
           class="cls-7"
           id="g302"
           style="mix-blend-mode:multiply">
          <path
             class="cls-8"
             d="m 40.16,104.84 c 0.7,0 1.34,-0.28 1.3,-0.81 0,-0.38 -0.49,-0.68 -1.06,-0.68 0.47,-0.11 1,-0.35 1,-0.74 -0.24,-1.36 -4,-0.87 -5.4,-0.75 a 1.68,1.68 0 0 0 -0.14,-0.8 2.14,2.14 0 0 0 -1.55,1.5 c 0,0.08 0,0.16 0,0.23 h -0.1 a 11.92,11.92 0 0 0 0.12,3.48 c 0,0.37 0.06,0.75 0.08,1.12 a 22.1,22.1 0 0 0 4.76,0.42 c 0.78,0 1.48,-0.11 1.74,-0.6 0.26,-0.49 -0.26,-0.86 -0.8,-0.89 0.64,-0.07 1.39,-0.45 1.23,-1.08 -0.11,-0.48 -0.9,-0.31 -1.18,-0.4 z"
             id="path300"
             inkscape:connector-curvature="0"
             style="fill:#e9ded8" />
        </g>
        <g
           id="Legs">
          <path
             id="right"
             class="cls-2"
             d="M 34.69,191.26 36.63,153 a 5.68,5.68 0 0 0 0.12,-3.74 l 0.88,-27.61 H 12.23 L 23.92,152 c -5.28,10.34 -1.48,21.37 -0.76,24.07 a 86.73,86.73 0 0 1 5.22,15.24 z"
             inkscape:connector-curvature="0"
             style="fill:#ffba8a" />
          <path
             id="left"
             class="cls-2"
             d="m 39.25,153 2.43,38.23 H 48 a 77.64,77.64 0 0 1 4.86,-15.21 c 0,-0.05 4.39,-13.59 -0.94,-24.08 l 11.13,-30.3 H 38.86 l 0.25,27.61 a 5.75,5.75 0 0 0 0.14,3.75 z"
             inkscape:connector-curvature="0"
             style="fill:#ffba8a" />
        </g>
        <g
           id="Hips">
          <path
             class="cls-2"
             d="m 63.24,121.67 a 11.58,11.58 0 0 0 0,-9.19 H 12.11 a 15.91,15.91 0 0 0 -0.14,9.19 z"
             id="path307"
             inkscape:connector-curvature="0"
             style="fill:#ffba8a" />
          <path
             class="cls-5"
             d="M 13.49,109.94 31.17,93.42 h 15.06 c 0,0 11.16,12 15.67,16.52 a 9.74,9.74 0 0 1 1.19,2.12 c 0,0 -19.8,3.13 -24.28,9.61 h -1.23 c 0,0 -6.22,-7.94 -25.37,-9.41 a 6.89,6.89 0 0 1 1.28,-2.32 z"
             id="path309"
             inkscape:connector-curvature="0"
             style="fill:#ffffff" />
        </g>
      </g>
    </g>
    <g
       data-name="Layer 2"
       id="g372">
      <g
         id="g370">
        <path
           style="fill:#ffba8a"
           inkscape:connector-curvature="0"
           id="path336"
           d="m 56.14,37.74 a 1.75,1.75 0 0 0 -1.55,0.53 c 0.68,-5.64 -0.42,-11.9 -4,-16.31 a 0.34,0.34 0 0 0 -0.58,0.1 29,29 0 0 0 -7.68,-4.23 17.19,17.19 0 0 0 -9.79,0.36 c -3.71,1.1 -11.1,4.54 -10.77,9.34 a 0.2,0.2 0 0 0 -0.06,0.13 85.55,85.55 0 0 0 0.16,11.09 2,2 0 0 0 -2,-1 c -1.61,0.32 -1.33,2.6 -1.17,3.74 0.22,1.56 0.72,3.72 2.44,4.28 a 1.92,1.92 0 0 0 2.06,-0.5 20.36,20.36 0 0 0 3.11,5.89 15.15,15.15 0 0 0 14.37,5.64 13.25,13.25 0 0 0 2.25,-0.57 13.69,13.69 0 0 0 6,-4.17 20.67,20.67 0 0 0 2.58,-3.91 c 0.25,-0.47 0.49,-0.95 0.71,-1.44 0.07,-0.17 0.7,-1.36 0.61,-1.47 a 1.92,1.92 0 0 0 2.07,0.52 c 1.72,-0.56 2.22,-2.73 2.44,-4.28 0.12,-1.12 0.41,-3.43 -1.2,-3.74 z"
           class="cls-2" />
        <path
           style="fill:#874629"
           inkscape:connector-curvature="0"
           id="path338"
           d="M 26,9.8 A 6.29,6.29 0 0 1 26.09,6.61 C 27,3.44 30.41,1.66 33.35,0.75 a 18.61,18.61 0 0 1 7.65,-0.6 14.1,14.1 0 0 1 7.63,3 9.29,9.29 0 0 1 3.24,7.85 7.86,7.86 0 0 1 -5.06,6.56 12.72,12.72 0 0 1 -3.41,0.55 58,58 0 0 1 -6.85,0 C 34.27,17.97 31.48,17.7 29.79,15.99 A 13.39,13.39 0 0 1 26,9.8 Z"
           class="cls-4" />
        <path
           style="fill:#874629"
           inkscape:connector-curvature="0"
           id="path340"
           d="M 56.59,19 C 55.05,15.26 51.88,12 46,12.5 38,7.7 26.36,9.37 21.26,16.87 a 19.58,19.58 0 0 0 -1.5,2.63 17.8,17.8 0 0 0 -1.6,6.24 31.4,31.4 0 0 0 3,14 20.36,20.36 0 0 0 1.68,2.85 c 0,0 -0.27,-2.8 -0.27,-2.81 C 22.17,28.57 34.38,27.69 40,24.86 a 20.73,20.73 0 0 0 4,-2.6 c 1.32,2.46 3.29,4.18 5.35,6.07 3.25,3 5.19,6 4.71,10.66 -0.05,0.45 -0.53,3.14 -0.32,2.76 C 57.4,35.14 59.17,25.32 56.59,19 Z"
           class="cls-4" />
      </g>
    </g>
  </g>
</svg>
