<?xml version="1.0" encoding="UTF-8" standalone="no"?>
<svg
   xmlns:dc="http://purl.org/dc/elements/1.1/"
   xmlns:cc="http://creativecommons.org/ns#"
   xmlns:rdf="http://www.w3.org/1999/02/22-rdf-syntax-ns#"
   xmlns:svg="http://www.w3.org/2000/svg"
   xmlns="http://www.w3.org/2000/svg"
   xmlns:sodipodi="http://sodipodi.sourceforge.net/DTD/sodipodi-0.dtd"
   xmlns:inkscape="http://www.inkscape.org/namespaces/inkscape"
   viewBox="0 0 44.32 191.26"
   version="1.1"
   id="svg53"
   sodipodi:docname="dress.svg"
   inkscape:version="0.92.4 (5da689c313, 2019-01-14)">
  <metadata
     id="metadata57">
    <rdf:RDF>
      <cc:Work
         rdf:about="">
        <dc:format>image/svg+xml</dc:format>
        <dc:type
           rdf:resource="http://purl.org/dc/dcmitype/StillImage" />
        <dc:title>Body1</dc:title>
      </cc:Work>
    </rdf:RDF>
  </metadata>
  <sodipodi:namedview
     pagecolor="#ffffff"
     bordercolor="#666666"
     borderopacity="1"
     objecttolerance="10"
     gridtolerance="10"
     guidetolerance="10"
     inkscape:pageopacity="0"
     inkscape:pageshadow="2"
     inkscape:window-width="1920"
     inkscape:window-height="1109"
     id="namedview55"
     showgrid="false"
     inkscape:zoom="4.9356898"
     inkscape:cx="27.371696"
     inkscape:cy="84.329832"
     inkscape:window-x="0"
     inkscape:window-y="31"
     inkscape:window-maximized="1"
     inkscape:current-layer="svg53" />
  <defs
     id="defs4">
    <style
       id="style2">.cls-1{isolation:isolate;}.cls-2{fill:#ffba8a;}.cls-3,.cls-8{fill:#e9ded8;}.cls-3,.cls-7{mix-blend-mode:multiply;}.cls-4{fill:#874629;}.cls-5{fill:#fff;}.cls-6{fill:none;stroke:#ebded3;stroke-linecap:round;stroke-linejoin:round;stroke-width:0;}</style>
  </defs>
  <title
     id="title6">Body1</title>
  <g
     transform="matrix(0.46593955,0,0,0.39528231,-234.10675,-144.35206)"
     id="g144">
    <g
       id="g136">
      <path
         style="fill:#e9f1f4"
         inkscape:connector-curvature="0"
         id="path104"
         d="m 563.1,791.1 h -33.2 l -23.1,-3.6 -31.2,-3.6 3.2,-10.5 -19.2,-11.4 c 0,0 51.2,-130.8 54.5,-136.9 1.2,-9.7 11.2,-39.9 11.2,-39.9 l -7.1,-20.9 -3,-14 c 0,0 3.9,-3.9 6.3,-4.9 12.4,-4.1 27.5,5.9 27.5,5.9 0,0 15.1,-9.9 27.5,-5.9 2.4,1 6.3,4.9 6.3,4.9 l -3,14 -6.7,20.9 c 0,0 9.6,30.2 10.8,39.9 3.2,6.1 54.5,136.9 54.5,136.9 l -23.7,13.9 -1.6,7.7 -34.5,7.7 h -15.5 z"
         class="st0" />
      <path
         style="fill:#055672"
         inkscape:connector-curvature="0"
         id="path106"
         d="m 578.5,793.1 h -48.6 c -0.1,0 -0.2,0 -0.3,0 l -23.1,-3.6 -31.2,-3.6 c -0.6,-0.1 -1.1,-0.4 -1.4,-0.9 -0.3,-0.5 -0.4,-1.1 -0.2,-1.7 l 2.8,-9 -17.9,-10.6 c -0.8,-0.5 -1.2,-1.5 -0.8,-2.4 2.1,-5.3 49.9,-127.3 54.4,-136.8 1.3,-9.4 9.6,-34.8 11.1,-39.3 l -6.9,-20.3 c 0,-0.1 0,-0.1 -0.1,-0.2 l -3,-14 c -0.1,-0.7 0.1,-1.4 0.5,-1.8 0.4,-0.4 4.2,-4.2 6.9,-5.3 0,0 0.1,0 0.1,-0.1 11.3,-3.7 24.3,3.2 28.1,5.4 2.4,-1.4 8.3,-4.6 15.2,-5.9 1.7,-0.3 3.3,-0.5 4.9,-0.6 2.1,-0.1 4.2,0.1 6.1,0.5 0.6,0.1 1.3,0.3 1.9,0.5 0,0 0.1,0 0.1,0.1 2.7,1.1 6.5,4.9 6.9,5.3 0.5,0.5 0.7,1.2 0.5,1.8 l -3,14 c 0,0.1 0,0.1 0,0.2 L 575,585 c 1.4,4.4 9.4,29.9 10.7,39.3 4.5,9.4 52.3,131.5 54.4,136.8 0.4,0.9 0,2 -0.9,2.5 l -22.9,13.4 -1.4,6.8 c -0.2,0.8 -0.8,1.4 -1.5,1.5 l -34.5,7.7 c -0.1,0.1 -0.3,0.1 -0.4,0.1 z m -48.5,-4 h 48.3 l 33,-7.4 1.4,-6.4 c 0.1,-0.6 0.5,-1 0.9,-1.3 l 22.2,-13 c -17.9,-45.6 -51.3,-130.4 -53.7,-135.1 -0.1,-0.2 -0.2,-0.5 -0.2,-0.7 -1.2,-9.4 -10.7,-39.3 -10.8,-39.6 -0.1,-0.4 -0.1,-0.8 0,-1.2 l 6.7,-20.8 2.8,-12.8 c -1.4,-1.4 -3.5,-3.1 -4.8,-3.7 -0.5,-0.2 -1,-0.3 -1.5,-0.4 -1.6,-0.4 -3.3,-0.5 -5.1,-0.4 -1.4,0 -2.8,0.2 -4.3,0.5 -8,1.5 -14.8,6 -14.9,6 -0.7,0.4 -1.5,0.4 -2.2,0 -0.1,-0.1 -14.4,-9.3 -25.7,-5.7 -1.3,0.6 -3.4,2.3 -4.8,3.7 l 2.8,12.8 7.1,20.8 c 0.1,0.4 0.1,0.9 0,1.3 -0.1,0.3 -10,30.1 -11.2,39.5 0,0.2 -0.1,0.5 -0.2,0.7 -2.5,4.7 -35.9,89.5 -53.7,135.1 l 17.8,10.6 c 0.8,0.5 1.2,1.4 0.9,2.3 l -2.5,8.2 28.8,3.4 c 0,0 0.1,0 0.1,0 z"
         class="st1" />
      <path
         style="fill:#055672"
         inkscape:connector-curvature="0"
         id="path108"
         d="m 590.6,707.6 c -0.8,0 -1.6,-0.5 -1.9,-1.4 l -3.2,-9.4 c -0.4,-1 0.2,-2.2 1.2,-2.5 1,-0.4 2.2,0.2 2.5,1.2 l 3.2,9.4 c 0.4,1 -0.2,2.2 -1.2,2.5 -0.2,0.2 -0.4,0.2 -0.6,0.2 z"
         class="st1" />
      <path
         style="fill:#055672"
         inkscape:connector-curvature="0"
         id="path110"
         d="m 606.6,754.3 c -0.8,0 -1.6,-0.5 -1.9,-1.4 L 593,718.8 c -0.4,-1 0.2,-2.2 1.2,-2.5 1,-0.4 2.2,0.2 2.5,1.2 l 11.7,34.2 c 0.4,1 -0.2,2.2 -1.2,2.5 -0.2,0.1 -0.4,0.1 -0.6,0.1 z"
         class="st1" />
      <path
         style="fill:#055672"
         inkscape:connector-curvature="0"
         id="path112"
         d="m 614.6,777.7 c -0.8,0 -1.6,-0.5 -1.9,-1.4 l -3.8,-11.2 c -0.4,-1 0.2,-2.2 1.2,-2.5 1,-0.4 2.2,0.2 2.5,1.2 l 3.8,11.2 c 0.4,1 -0.2,2.2 -1.2,2.5 -0.2,0.2 -0.4,0.2 -0.6,0.2 z"
         class="st1" />
      <path
         style="fill:#055672"
         inkscape:connector-curvature="0"
         id="path114"
         d="m 494,735.2 c -0.2,0 -0.5,0 -0.7,-0.1 -1,-0.4 -1.6,-1.5 -1.2,-2.6 l 9,-23.7 c 0.4,-1 1.5,-1.6 2.6,-1.2 1,0.4 1.6,1.5 1.2,2.6 l -9,23.7 c -0.4,0.8 -1.1,1.3 -1.9,1.3 z"
         class="st1" />
      <path
         style="fill:#055672"
         inkscape:connector-curvature="0"
         id="path116"
         d="m 478.8,775.3 c -0.2,0 -0.5,0 -0.7,-0.1 -1,-0.4 -1.6,-1.5 -1.2,-2.6 L 489,740.7 c 0.4,-1 1.5,-1.6 2.6,-1.2 1,0.4 1.6,1.5 1.2,2.6 L 480.6,774 c -0.3,0.8 -1,1.3 -1.8,1.3 z"
         class="st1" />
      <path
         style="fill:#055672"
         inkscape:connector-curvature="0"
         id="path118"
         d="m 529.8,736.8 c -1.1,0 -2,-0.9 -2,-2 v -6.9 c 0,-1.1 0.9,-2 2,-2 1.1,0 2,0.9 2,2 v 6.9 c 0,1.1 -0.8,2 -2,2 z"
         class="st1" />
      <path
         style="fill:#055672"
         inkscape:connector-curvature="0"
         id="path120"
         d="m 529.8,793.1 c -1.1,0 -2,-0.9 -2,-2 v -48.4 c 0,-1.1 0.9,-2 2,-2 1.1,0 2,0.9 2,2 v 48.4 c 0,1.1 -0.8,2 -2,2 z"
         class="st1" />
      <path
         style="fill:#055672"
         inkscape:connector-curvature="0"
         id="path122"
         d="m 578.5,793.1 c -1,0 -1.8,-0.7 -2,-1.7 l -12.2,-73 c -0.2,-1.1 0.6,-2.1 1.6,-2.3 1.1,-0.2 2.1,0.6 2.3,1.6 l 12.2,73 c 0.2,1.1 -0.6,2.1 -1.6,2.3 -0.1,0.1 -0.2,0.1 -0.3,0.1 z"
         class="st1" />
      <path
         style="fill:#9cb3b7"
         inkscape:connector-curvature="0"
         id="path124"
         d="M 522.1,594.5 H 576 c -1.7,-5.5 -3,-9.5 -3,-9.5 h -47.6 c -0.1,0 -1.5,4 -3.3,9.5 z"
         class="st2" />
      <path
         style="fill:#055672"
         inkscape:connector-curvature="0"
         id="path126"
         d="m 576,596.5 h -53.8 c -0.6,0 -1.2,-0.3 -1.6,-0.8 -0.4,-0.5 -0.5,-1.2 -0.3,-1.8 1.8,-5.5 3.2,-9.5 3.2,-9.6 0.3,-0.8 1,-1.4 1.9,-1.4 H 551 c 1.1,0 2,0.9 2,2 0,1.1 -0.9,2 -2,2 h -24.2 c -0.4,1.2 -1.1,3.1 -1.8,5.5 h 48.4 c -0.8,-2.4 -1.4,-4.3 -1.8,-5.5 h -5.4 c -1.1,0 -2,-0.9 -2,-2 0,-1.1 0.9,-2 2,-2 h 6.8 c 0.9,0 1.6,0.6 1.9,1.4 0,0 1.3,4.1 3,9.6 0.2,0.6 0.1,1.3 -0.3,1.8 -0.4,0.5 -1,0.8 -1.6,0.8 z"
         class="st1" />
      <path
         style="fill:#055672"
         inkscape:connector-curvature="0"
         id="path128"
         d="m 573.3,622.8 c -0.6,0 -1.1,-0.4 -1.2,-1 l -1.2,-5.7 c -0.1,-0.7 0.3,-1.3 1,-1.4 0.7,-0.1 1.3,0.3 1.4,1 l 1.2,5.7 c 0.1,0.7 -0.3,1.3 -1,1.4 0,0 -0.1,0 -0.2,0 z"
         class="st1" />
      <path
         style="fill:#055672"
         inkscape:connector-curvature="0"
         id="path130"
         d="m 570.8,610.5 c -0.6,0 -1.1,-0.4 -1.2,-1 l -1.4,-7.1 -4.1,-7.3 c -0.3,-0.6 -0.1,-1.3 0.5,-1.7 0.6,-0.3 1.3,-0.1 1.7,0.5 l 4.2,7.5 c 0.1,0.1 0.1,0.2 0.1,0.4 l 1.5,7.2 c 0.1,0.7 -0.3,1.3 -1,1.4 -0.1,0.1 -0.2,0.1 -0.3,0.1 z"
         class="st1" />
      <path
         style="fill:#055672"
         inkscape:connector-curvature="0"
         id="path132"
         d="m 525.8,622.8 c -0.1,0 -0.1,0 -0.2,0 -0.7,-0.1 -1.1,-0.7 -1,-1.4 l 2.8,-17.7 c 0,-0.1 0,-0.2 0.1,-0.3 l 4.1,-9.3 c 0.3,-0.6 1,-0.9 1.6,-0.6 0.6,0.3 0.9,1 0.6,1.6 l -4,9.2 -2.8,17.6 c -0.1,0.5 -0.6,0.9 -1.2,0.9 z"
         class="st1" />
      <path
         style="fill:#055672"
         inkscape:connector-curvature="0"
         id="path134"
         d="m 556.4,613.6 c -0.7,0 -1.2,-0.6 -1.2,-1.2 v -12.2 l -1.6,-5.3 c -0.2,-0.7 0.2,-1.3 0.8,-1.5 0.7,-0.2 1.3,0.2 1.5,0.8 l 1.6,5.5 c 0,0.1 0.1,0.2 0.1,0.3 v 12.4 c 0,0.7 -0.5,1.2 -1.2,1.2 z"
         class="st1" />
    </g>
    <g
       id="g142">
      <path
         style="fill:#055672"
         inkscape:connector-curvature="0"
         id="path138"
         d="m 564.3,569.7 c -3.1,0 -6.7,-0.3 -10.6,-1.2 -0.7,-0.1 -1.1,-0.8 -0.9,-1.5 0.1,-0.7 0.8,-1.1 1.5,-0.9 8.6,1.9 15.4,1 18,0.2 0.6,-0.2 1.3,0.2 1.5,0.8 0.2,0.6 -0.2,1.3 -0.8,1.5 -1.6,0.6 -4.6,1.1 -8.7,1.1 z"
         class="st1" />
      <path
         style="fill:#055672"
         inkscape:connector-curvature="0"
         id="path140"
         d="m 533.5,569.7 c -4,0 -7.1,-0.5 -8.7,-1.1 -0.6,-0.2 -1,-0.9 -0.8,-1.5 0.2,-0.6 0.9,-1 1.5,-0.8 2.6,0.8 9.4,1.7 18,-0.2 0.7,-0.1 1.3,0.3 1.5,0.9 0.1,0.7 -0.3,1.3 -0.9,1.5 -4,0.9 -7.6,1.2 -10.6,1.2 z"
         class="st1" />
    </g>
  </g>
</svg>
