<svg xmlns="http://www.w3.org/2000/svg" viewBox="0 0 35.04 69.59"><defs><style>.cls-1{fill:#ffba8a;}</style></defs><title>Asset 1</title><g id="Layer_2" data-name="Layer 2"><g id="OBJECTS"><g id="Legs"><path id="right" class="cls-1" d="M15.47,69.59l1.34-38.24a7.28,7.28,0,0,0,.08-3.74L17.5,0H0L8.05,30.27a39.87,39.87,0,0,0-.52,24.08,114.48,114.48,0,0,1,3.59,15.24Z"/><path id="left" class="cls-1" d="M18.61,31.35l1.68,38.24h4.38A104.11,104.11,0,0,1,28,54.38a39,39,0,0,0-.65-24.08L35,0H18.34l.17,27.61A7.1,7.1,0,0,0,18.61,31.35Z"/></g></g></g></svg>